HIERARCHY
ROOT Hips
{
  OFFSET -8.24734 100.575 -152.273
  CHANNELS 6 Xposition Yposition Zposition Zrotation Xrotation Yrotation
  JOINT RightUpLeg
  {
    OFFSET -8.9458 -8.66707 0.101652
    CHANNELS 3 Zrotation Xrotation Yrotation
    JOINT RightLeg
    {
      OFFSET 0 -44.4227 1.3727
      CHANNELS 3 Zrotation Xrotation Yrotation
      JOINT RightFoot
      {
        OFFSET 0.253549 -42.0924 -1.46059
        CHANNELS 3 Zrotation Xrotation Yrotation
        JOINT RightToes
        {
          OFFSET 0.04 -4.41509 8.4991
          CHANNELS 3 Zrotation Xrotation Yrotation
          End Site
          {
            OFFSET -0.08 -0.137448 9.77979
          }
        }
      }
    }
  }
  JOINT Spine
  {
    OFFSET 0 11.8905 0
    CHANNELS 3 Zrotation Xrotation Yrotation
    JOINT Spine1
    {
      OFFSET 0 25.6574 0.127663
      CHANNELS 3 Zrotation Xrotation Yrotation
      JOINT HEad
      {
        OFFSET 0 8.73416 0.011341
        CHANNELS 3 Zrotation Xrotation Yrotation
        End Site
        {
          OFFSET -0.29 12.7742 2.51395
        }
      }
      JOINT LeftShoulder1
      {
        OFFSET 8.99 -0.362252 -0.22
        CHANNELS 3 Zrotation Xrotation Yrotation
        JOINT LeftArm
        {
          OFFSET 10.2827 -0.00338 0.322123
          CHANNELS 3 Zrotation Xrotation Yrotation
          JOINT LeftForeArm
          {
            OFFSET 32.7669 0.099144 -1.42434
            CHANNELS 3 Zrotation Xrotation Yrotation
            JOINT LeftHand
            {
              OFFSET 27.5643 0.085362 1.02216
              CHANNELS 3 Zrotation Xrotation Yrotation
              End Site
              {
                OFFSET 16.7443 -0.6 1.50291
              }
            }
          }
        }
      }
      JOINT RightShoulder
      {
        OFFSET -8.99 -0.362252 -0.22
        CHANNELS 3 Zrotation Xrotation Yrotation
        JOINT RightArm
        {
          OFFSET -10.2827 -0.00338 0.322123
          CHANNELS 3 Zrotation Xrotation Yrotation
          JOINT RightForeArm
          {
            OFFSET -32.8971 0.099144 -1.42434
            CHANNELS 3 Zrotation Xrotation Yrotation
            JOINT RightHand
            {
              OFFSET -27.4921 0.085362 1.02216
              CHANNELS 3 Zrotation Xrotation Yrotation
              End Site
              {
                OFFSET -16.6312 -0.6 1.50291
              }
            }
          }
        }
      }
    }
  }
  JOINT LeftUpLeg
  {
    OFFSET 8.9458 -8.66707 0.101652
    CHANNELS 3 Zrotation Xrotation Yrotation
    JOINT LeftLeg
    {
      OFFSET 0 -44.4227 1.3727
      CHANNELS 3 Zrotation Xrotation Yrotation
      JOINT LeftFoot
      {
        OFFSET -0.253549 -42.0924 -1.46059
        CHANNELS 3 Zrotation Xrotation Yrotation
        JOINT LeftToes
        {
          OFFSET -0.04 -4.41509 8.4991
          CHANNELS 3 Zrotation Xrotation Yrotation
          End Site
          {
            OFFSET 0.08 -0.047448 9.77979
          }
        }
      }
    }
  }
}
MOTION
Frames:	15
Frame Time:	0.0166667
-8.24734 100.575 -152.273 -0.158437 0.00981999 2.81557 2.1104 -31.7219 -0.620667 0.825193 37.6648 -6.45577 1.06895 -7.43675 -0.159606 0.0462048 0.000533964 0.662642 0.130784 2.70315 2.67256 15.6866 19.7835 -3.02056 -4.4862 -6.92394 -3.81747 5.96354e-016 6.36111e-015 -2.38542e-015 -90.6777 -4.01067 -27.5009 -26.4782 13.296 -11.8454 0.368473 9.90896 -0.00117926 -4.385 -0.172976 -7.25847 80.7698 -8.98982 19.4065 24.6764 15.7429 29.0583 -0.369625 9.91382 0.00119886 -0.0188772 -7.18115 1.16253 -9.41765 49.9577 26.6401 -28.1654 -8.39534 -1.01961 6.48833e-013 1.8883e-011 -6.8541e-012 
-8.59648 100.512 -150.472 -0.435156 -0.122618 2.93475 2.36907 -31.071 -2.44508 0.124856 39.0394 -4.88322 0.872112 -9.17455 -0.160315 0.106858 0.287278 0.85618 0.588843 2.75693 2.58859 15.6286 20.0297 -3.03642 -3.95709 -6.54882 -3.90036 -2.88238e-015 -3.18055e-015 1.78906e-015 -90.5776 -3.95367 -27.4066 -26.5665 13.2641 -11.7936 0.368473 9.90896 -0.00117926 -4.51329 -0.166836 -7.21509 80.8356 -8.45646 19.6121 24.7426 15.6612 28.8457 -0.369625 9.91382 0.00119886 1.30845 -7.92711 1.59628 -9.86651 52.2573 26.6816 -28.2566 -5.68752 -0.338395 6.42472e-013 1.88941e-011 -6.8541e-012 
-8.93097 100.437 -148.696 -0.704654 -0.247191 3.05599 2.65036 -30.4045 -4.05257 -0.53516 40.3486 -3.40856 0.710572 -10.7261 -0.161078 0.0963382 -0.311789 0.762157 1.07165 2.81133 2.49793 15.5734 20.2831 -3.05226 -3.5107 -6.24428 -3.96344 -9.93923e-016 -3.18055e-015 -9.93923e-016 -90.4851 -3.91269 -27.2851 -26.671 13.247 -11.8244 0.368473 9.90896 -0.00117926 -4.664 -0.160221 -7.1762 80.8174 -7.80961 19.8005 24.8651 15.5687 28.606 -0.369625 9.91382 0.00119886 2.52784 -8.76843 1.82219 -10.3201 54.5927 26.7204 -28.4173 -2.95723 0.347113 6.39291e-013 1.88957e-011 -6.85091e-012 
-9.22796 100.321 -146.986 -0.941616 -0.369357 3.1879 2.87915 -29.7478 -5.12301 -0.897728 41.5457 -2.26942 0.665878 -11.6663 -0.159491 -0.260905 -3.97853 -0.379231 1.6397 2.8693 2.37941 15.5001 20.5844 -3.06747 -3.30313 -6.10874 -3.97804 -5.96354e-016 3.18055e-015 2.38542e-015 -90.3863 -3.88595 -27.1133 -26.8394 13.2629 -12.0599 0.368473 9.90896 -0.00117926 -4.88244 -0.152076 -7.14897 80.5703 -6.80279 19.9402 25.1453 15.4458 28.3103 -0.369625 9.91382 0.00119886 3.41184 -9.83334 1.53578 -10.6383 57.024 26.5338 -28.6669 -0.0154766 1.09991 6.39291e-013 1.88893e-011 -6.85091e-012 
-9.49728 100.199 -145.319 -1.19557 -0.441399 3.31285 3.12488 -29.1004 -5.87901 -1.08573 42.6052 -1.43821 0.635259 -12.5259 -0.160082 -0.72783 -7.70894 -1.45188 2.20997 2.92448 2.26984 15.4818 20.8412 -3.08345 -3.2038 -6.12888 -3.95062 -1.98785e-015 -6.36111e-015 9.93923e-016 -90.3524 -3.94351 -26.8514 -26.9925 13.3154 -12.4645 0.368473 9.90896 -0.00117926 -5.12224 -0.143667 -7.12986 80.2069 -5.71776 20.0644 25.5042 15.3083 27.9367 -0.369625 9.91382 0.00119886 4.09287 -11.1227 0.80151 -11.1607 59.4884 26.5358 -28.9806 2.65121 1.79534 6.45653e-013 1.88893e-011 -6.85091e-012 
-9.73949 100.099 -143.682 -1.5298 -0.398001 3.40927 3.47489 -28.464 -6.40624 -1.12585 43.4715 -1.02101 0.483141 -13.8701 -0.171356 -0.673342 -8.35027 -1.34309 2.70465 2.97347 2.20969 15.6381 20.9655 -3.10962 -3.16362 -6.40803 -3.87157 1.49089e-015 -3.18055e-015 -3.97569e-016 -90.4829 -4.17646 -26.4386 -27.0651 13.4208 -13.0866 0.368473 9.90896 -0.00117926 -5.38783 -0.136013 -7.15044 79.8058 -4.73445 20.1934 25.9063 15.1697 27.4716 -0.369625 9.91382 0.00119886 4.58605 -12.7139 -0.568179 -12.4782 61.9876 27.2762 -29.3216 4.71122 2.3536 6.3293e-013 1.88989e-011 -6.84773e-012 
-9.95957 100.018 -142.077 -1.8796 -0.297537 3.49747 3.82849 -27.8291 -6.77961 -1.03975 44.183 -0.866366 0.388617 -15.1702 -0.177619 -0.365416 -8.55092 -0.706948 3.16798 3.01033 2.16685 15.8086 20.9847 -3.12089 -3.09007 -6.69484 -3.76042 4.96962e-016 0 9.93923e-016 -90.6685 -4.52475 -25.9158 -27.0564 13.5559 -13.797 0.368473 9.90896 -0.00117926 -5.57206 -0.128794 -7.11268 79.328 -3.90924 20.3148 26.3214 15.0144 26.8613 -0.369625 9.91382 0.00119886 4.92881 -14.4879 -2.14707 -14.2706 64.3441 28.6249 -29.5785 5.89492 2.68491 6.48833e-013 1.88957e-011 -6.85091e-012 
-10.1655 99.9653 -140.501 -2.21065 -0.16311 3.60511 4.12422 -27.1991 -7.06604 -0.844858 44.7361 -0.930414 0.563066 -15.9764 -0.15851 0.173824 -10.2763 0.379141 3.6224 3.027 2.12532 15.86 20.8147 -3.07997 -2.81677 -6.64644 -3.62479 -3.37934e-015 3.18055e-015 -1.78906e-015 -90.8286 -4.95402 -25.2344 -26.9171 13.7156 -14.5053 0.368473 9.90896 -0.00117926 -5.49232 -0.121936 -6.86374 78.6436 -3.41178 20.3669 26.7217 14.819 26.0096 -0.369625 9.91382 0.00119886 5.26647 -16.3838 -3.54812 -16.4564 66.4204 30.7634 -29.5906 5.50449 2.58092 6.39291e-013 1.88925e-011 -6.8541e-012 
-10.3489 99.9274 -138.955 -2.49391 -0.0351453 3.68861 4.35629 -26.5284 -7.36266 -0.659901 45.1843 -0.944958 0.77904 -16.6158 -0.134931 0.697048 -12.4112 1.28891 4.05573 3.0264 2.07725 15.8302 20.7011 -3.03314 -2.52283 -6.6403 -3.49069 -2.98177e-016 -3.18055e-015 -9.93923e-016 -90.9739 -5.47832 -24.6017 -26.7338 13.8666 -15.1413 0.368473 9.90896 -0.00117926 -5.37962 -0.115684 -6.59965 78.1094 -3.08017 20.5091 27.0575 14.6102 25.0314 -0.369625 9.91382 0.00119886 5.49719 -18.327 -4.80814 -18.7154 68.0794 33.0925 -29.4954 4.49559 2.30721 6.45653e-013 1.88925e-011 -6.8541e-012 
-10.5031 99.892 -137.437 -2.67508 0.0239002 3.70696 4.49293 -25.7564 -7.84231 -0.676432 45.5873 -0.496468 0.84728 -17.2904 -0.123791 0.645977 -14.4636 1.0444 4.45828 3.00918 2.00325 15.7055 20.9413 -3.0259 -2.35999 -7.06777 -3.39474 2.98177e-016 3.18055e-015 3.18055e-015 -91.121 -6.15003 -24.2572 -26.5832 13.973 -15.5927 0.368473 9.90896 -0.00117926 -5.44901 -0.111001 -6.52268 78.1329 -2.78711 20.9674 27.2578 14.407 23.9707 -0.369625 9.91382 0.00119886 5.59456 -20.216 -5.78223 -20.1933 69.1504 34.5717 -29.4023 3.73159 2.09813 6.45653e-013 1.88893e-011 -6.85091e-012 
-10.6307 99.8626 -135.943 -2.79341 0.0571581 3.68004 4.5835 -24.9295 -8.33105 -0.758183 45.9174 0.0682089 0.861157 -17.9255 -0.117782 0.421971 -16.5554 0.528966 4.84497 2.97408 1.92194 15.5051 21.2966 -3.02222 -2.23482 -7.54505 -3.31223 1.78906e-015 -3.18055e-015 -7.95139e-016 -91.2012 -6.80935 -24.0588 -26.4583 14.0442 -15.8912 0.368473 9.90896 -0.00117926 -5.56543 -0.105711 -6.46134 78.4155 -2.60423 21.4883 27.372 14.221 22.9402 -0.369625 9.91382 0.00119886 5.5834 -22.0926 -6.59289 -21.1423 69.7816 35.4934 -29.2598 2.79052 1.84197 6.48833e-013 1.88861e-011 -6.85728e-012 
-10.7303 99.8363 -134.469 -2.88598 0.0887404 3.62384 4.66328 -24.0826 -8.66994 -0.754996 46.1712 0.428486 0.861615 -18.462 -0.114039 0.547918 -18.8619 0.669114 5.24697 2.91963 1.84359 15.2394 21.6161 -2.99731 -2.07684 -7.77251 -3.24967 3.47873e-015 -3.18055e-015 2.5842e-015 -91.1143 -7.25075 -23.963 -26.3871 14.0665 -15.9818 0.368473 9.90896 -0.00117926 -5.62042 -0.0976826 -6.27713 78.7774 -2.60871 21.8564 27.4148 14.0876 22.1185 -0.369625 9.91382 0.00119886 5.46184 -23.9812 -7.30347 -21.6642 70.072 35.862 -29.0822 1.46042 1.48449 6.39291e-013 1.88925e-011 -6.84773e-012 
-10.8065 99.8205 -133.011 -2.90593 0.113195 3.50904 4.70868 -23.1916 -9.00166 -0.857062 46.3472 0.888319 0.817146 -19.0557 -0.11603 0.475208 -20.727 0.43916 5.60583 2.84707 1.77379 14.9205 21.9337 -2.96246 -1.97564 -7.88851 -3.14928 9.93923e-016 -3.18055e-015 1.39149e-015 -90.9718 -7.66192 -23.9015 -26.339 14.0708 -16.0132 0.368473 9.90896 -0.00117926 -5.74955 -0.0877064 -6.07339 79.2893 -2.65022 22.1849 27.4364 13.9729 21.3488 -0.369625 9.91382 0.00119886 5.23331 -25.8238 -7.95725 -21.8515 69.9395 35.9996 -28.8075 -0.0260151 1.08946 6.45653e-013 1.88925e-011 -6.84455e-012 
-10.8641 99.8207 -131.57 -2.79664 0.130972 3.30644 4.70808 -22.226 -9.52435 -1.34794 46.4314 1.84605 0.690151 -20.0119 -0.128385 -0.5146 -20.8128 -1.32149 5.86891 2.75454 1.72059 14.5504 22.2307 -2.91809 -2.01027 -7.92694 -2.93616 -5.96354e-016 -9.54166e-015 9.93923e-016 -90.8392 -8.15075 -23.806 -26.3025 14.0795 -16.1138 0.368473 9.90896 -0.00117926 -6.10987 -0.0748451 -5.91222 80.0013 -2.56571 22.5159 27.496 13.8499 20.5383 -0.369625 9.91382 0.00119886 4.86374 -27.576 -8.64879 -22.0033 69.3194 36.4438 -28.2777 -1.50949 0.699051 6.52014e-013 1.88957e-011 -6.85091e-012 
-10.9014 99.8389 -130.135 -2.62448 0.148477 3.03161 4.6881 -21.2384 -9.90229 -1.80844 46.4404 2.7056 0.539076 -20.8226 -0.145099 -1.62756 -21.2959 -3.35934 6.0502 2.64981 1.68691 14.1709 22.5145 -2.87214 -2.13988 -7.90141 -2.66831 -1.88845e-015 0 1.98785e-016 -90.7377 -8.75881 -23.6402 -26.245 14.1024 -16.2909 0.368473 9.90896 -0.00117926 -6.52838 -0.0621716 -5.77887 80.7805 -2.47644 22.8484 27.5659 13.7204 19.6763 -0.369625 9.91382 0.00119886 4.43342 -29.2138 -9.29261 -21.768 68.2381 36.7381 -27.7622 -2.98028 0.319514 6.47243e-013 1.88893e-011 -6.85728e-012 
